<svg width="19" height="19" viewBox="0 0 19 19" fill="none" xmlns="http://www.w3.org/2000/svg">
<path d="M18.5807 9.07925C18.5824 9.07925 18.5836 9.07925 18.5853 9.07925C18.701 9.07925 18.8113 9.03072 18.8897 8.94569C18.9693 8.85942 19.0087 8.74369 18.9984 8.62672C18.5819 4.04629 14.9557 0.418607 10.3751 0.00133668C10.259 -0.00778852 10.142 0.0299567 10.0558 0.11001C9.9695 0.189648 9.92139 0.302054 9.92263 0.419437C9.9948 6.50677 10.7978 8.99422 18.5807 9.07925ZM18.5807 9.92043C10.7978 10.0055 9.99521 12.4929 9.92305 18.5802C9.9218 18.6976 9.96991 18.81 10.0562 18.8897C10.1333 18.9606 10.2341 19 10.3378 19C10.3502 19 10.3631 18.9996 10.3755 18.9983C14.9561 18.5811 18.5824 14.9538 18.9984 10.373C19.0087 10.256 18.9697 10.1403 18.8897 10.054C18.8096 9.96771 18.6981 9.92499 18.5807 9.92043ZM8.59707 0.00341064C4.031 0.43271 0.416389 4.05956 0.00204582 8.62755C-0.00832312 8.74452 0.0306641 8.86025 0.110712 8.94652C0.189102 9.03155 0.299842 9.07967 0.415144 9.07967C0.416803 9.07967 0.418462 9.07967 0.420121 9.07967C8.17733 8.99049 8.97823 6.50429 9.05123 0.421096C9.05247 0.303713 9.00394 0.190892 8.91767 0.111254C8.83057 0.0316158 8.71403 -0.00737369 8.59707 0.00341064ZM0.419707 9.92001C0.290717 9.9055 0.189516 9.96688 0.110298 10.0532C0.0306642 10.1394 -0.00873785 10.2552 0.00163109 10.3721C0.415974 14.9401 4.031 18.567 8.59707 18.9963C8.60992 18.9975 8.6232 18.9979 8.63605 18.9979C8.73974 18.9979 8.84011 18.9589 8.91726 18.888C9.00353 18.8084 9.05206 18.6956 9.05081 18.5782C8.97781 12.4954 8.17733 10.0092 0.419707 9.92001Z" fill="#BAC9CF"/>
</svg>
