<svg width="15" height="18" viewBox="0 0 15 18" fill="none" xmlns="http://www.w3.org/2000/svg">
<path d="M7.5 0C3.35964 0 0 3.375 0 7.53429C0 15.3707 7.19923 17.9293 7.26963 17.9614C7.34642 17.9871 7.41681 18 7.5 18C7.57679 18 7.65358 17.9871 7.72398 17.9614C7.80077 17.9357 15 15.3771 15 7.53429C15 3.375 11.634 0 7.5 0ZM7.5 11.4879C5.30503 11.4879 3.52602 9.69429 3.52602 7.50214C3.52602 5.29714 5.31143 3.51 7.5 3.51C9.68857 3.51 11.4676 5.30357 11.4676 7.50214C11.4676 9.69429 9.68857 11.4879 7.5 11.4879Z" fill="#BAC9CF"/>
</svg>
