<svg width="24" height="24" viewBox="0 0 24 24" fill="none" xmlns="http://www.w3.org/2000/svg">
<path d="M12 0C5.37308 0 0 5.37306 0 12C0 18.6268 5.37308 24 12 24C18.627 24 24 18.6268 24 12C24 5.37306 18.627 0 12 0ZM18.3369 17.5093L17.376 18.4703C17.2045 18.6416 16.7022 18.7485 16.6861 18.7485C13.6465 18.775 10.7198 17.5811 8.56944 15.4305C6.41319 13.2731 5.21786 10.336 5.24997 7.28613C5.24997 7.28475 5.35997 6.79685 5.53136 6.62709L6.49213 5.66617C6.84372 5.31296 7.51909 5.15334 7.9922 5.31162L8.19431 5.37904C8.66604 5.53718 9.16131 6.05876 9.29165 6.53929L9.77495 8.31313C9.90529 8.79505 9.72949 9.48066 9.37801 9.83224L8.73647 10.4739C9.36634 12.8057 11.1959 14.6356 13.5281 15.267L14.1694 14.6252C14.5226 14.272 15.208 14.0963 15.6889 14.2265L17.4625 14.7115C17.9431 14.8436 18.4646 15.3357 18.6227 15.8073L18.6901 16.0123C18.8468 16.4841 18.6884 17.1593 18.3369 17.5093Z" fill="#BAC9CF"/>
</svg>
