<svg width="22" height="12" viewBox="0 0 22 12" fill="none" xmlns="http://www.w3.org/2000/svg">
<path d="M2.33313 2.38142V6.04645H7.20524C7.69474 6.04645 8.04013 5.9057 8.24142 5.62421C8.44271 5.34272 8.54336 4.87262 8.54336 4.21393C8.54336 3.56087 8.44729 3.0936 8.25515 2.8121C8.06301 2.52498 7.71304 2.38142 7.20524 2.38142H2.33313ZM11.048 12H8.71491V10.1337C8.71491 9.53695 8.5708 9.10626 8.28259 8.84166C7.99896 8.57143 7.52319 8.43631 6.85527 8.43631H2.33313V12H0V0H7.40424C7.83427 0 8.21397 0.0365939 8.54336 0.109782C8.87731 0.18297 9.19526 0.315271 9.49719 0.506685C9.79913 0.6981 10.0462 0.948628 10.2383 1.25827C10.435 1.56791 10.5906 1.97326 10.7049 2.47431C10.8193 2.96974 10.8765 3.54961 10.8765 4.21393C10.8765 4.65306 10.8376 5.04715 10.7598 5.3962C10.6821 5.74525 10.57 6.04082 10.4236 6.2829C10.2818 6.52498 10.1354 6.72766 9.9844 6.89092C9.83344 7.04856 9.65731 7.20056 9.45602 7.34694C9.72136 7.45391 9.94094 7.56369 10.1148 7.67628C10.2932 7.78325 10.4579 7.92118 10.6089 8.09008C10.7598 8.25334 10.8696 8.4532 10.9382 8.68966C11.0114 8.92048 11.048 9.19353 11.048 9.5088V12Z" fill="#A8B9BF"/>
<path d="M12.4067 3.45391H14.7399V7.69317C14.7399 8.50387 14.9023 9.09782 15.2271 9.47502C15.5565 9.84659 16.062 10.0324 16.7436 10.0324H17.6563C18.2601 10.0324 18.7451 9.82688 19.111 9.4159C19.4816 9.00493 19.6669 8.43068 19.6669 7.69317V3.45391H22V12H19.6669V10.9106C19.4885 11.2428 19.2277 11.5074 18.8846 11.7044C18.5415 11.9015 18.132 12 17.6563 12H15.4261C14.4974 12 13.7609 11.7016 13.2165 11.1049C12.6766 10.5081 12.4067 9.60169 12.4067 8.38564V3.45391Z" fill="#A8B9BF"/>
</svg>
