<svg width="20" height="20" viewBox="0 0 20 20" fill="none" xmlns="http://www.w3.org/2000/svg">
<path d="M10 0C4.47715 0 0 4.47715 0 10C0 15.5229 4.47715 20 10 20C15.5229 20 20 15.5229 20 10C20 4.47715 15.5229 0 10 0ZM15.1976 6.32563L13.4215 14.8047C13.4 14.9072 13.3531 15.0028 13.2851 15.0824C13.2171 15.1621 13.1301 15.2235 13.0322 15.2608C12.9343 15.2981 12.8285 15.3102 12.7247 15.296C12.6209 15.2817 12.5223 15.2417 12.438 15.1794L9.85461 13.2708L8.28945 14.7473C8.26897 14.7667 8.24483 14.7817 8.21846 14.7916C8.1921 14.8015 8.16402 14.8061 8.13587 14.805C8.10773 14.8039 8.08008 14.7973 8.05453 14.7854C8.02899 14.7735 8.00607 14.7567 7.98711 14.7359L7.95348 14.6989L8.22543 12.0671L13.1271 7.58852C13.1514 7.5664 13.1665 7.53601 13.1694 7.50333C13.1723 7.47065 13.1629 7.43806 13.143 7.41199C13.1231 7.38591 13.0941 7.36825 13.0618 7.36248C13.0295 7.35671 12.9962 7.36325 12.9685 7.38082L6.6998 11.3484L4 10.4417C3.92821 10.4176 3.86565 10.3718 3.82089 10.3107C3.77612 10.2497 3.75136 10.1762 3.74999 10.1005C3.74862 10.0248 3.77071 9.9505 3.81324 9.88784C3.85576 9.82517 3.91663 9.7772 3.9875 9.75051L14.5508 5.77125C14.6323 5.74059 14.7205 5.73238 14.8062 5.74748C14.892 5.76258 14.9721 5.80043 15.0382 5.85709C15.1043 5.91375 15.154 5.98712 15.182 6.06954C15.2101 6.15197 15.2154 6.24041 15.1976 6.32563Z" fill="#2DA3DB"/>
</svg>
