<svg width="19" height="19" viewBox="0 0 19 19" fill="none" xmlns="http://www.w3.org/2000/svg">
<path fill-rule="evenodd" clip-rule="evenodd" d="M9.5 19C14.7467 19 19 14.7467 19 9.5C19 4.25329 14.7467 0 9.5 0C4.25329 0 0 4.25329 0 9.5C0 14.7467 4.25329 19 9.5 19ZM15.8783 13.1336C15.893 13.1579 15.9088 13.1883 15.9258 13.2249C15.9427 13.2614 15.9597 13.3259 15.977 13.4183C15.9939 13.5108 15.9928 13.5936 15.9733 13.6666C15.9538 13.7395 15.8931 13.8065 15.7911 13.8674C15.6892 13.9281 15.5456 13.9587 15.361 13.9587L13.495 13.9878C13.3782 14.0122 13.2422 14 13.087 13.9514C12.9314 13.9027 12.8051 13.8492 12.7078 13.7907L12.562 13.7031C12.4163 13.6007 12.2463 13.4451 12.0518 13.2358C11.8575 13.0266 11.691 12.8381 11.5525 12.6701C11.414 12.5023 11.2658 12.361 11.1079 12.2467C10.9498 12.1322 10.8125 12.0945 10.6959 12.1334C10.6813 12.1384 10.662 12.1467 10.6378 12.159C10.6134 12.1711 10.5719 12.2065 10.5136 12.2649C10.4555 12.3231 10.4033 12.395 10.357 12.4801C10.3107 12.5653 10.2693 12.6919 10.2329 12.8597C10.1966 13.0276 10.1807 13.2162 10.1857 13.4255C10.1857 13.4984 10.1772 13.5654 10.1601 13.6262C10.1433 13.6869 10.125 13.7321 10.1055 13.7611L10.0765 13.7977C9.98897 13.8901 9.86017 13.9437 9.69016 13.9584H8.85188C8.50683 13.9777 8.15211 13.9376 7.78766 13.8378C7.42316 13.738 7.10369 13.609 6.82908 13.451C6.55453 13.2927 6.3043 13.1321 6.07828 12.969C5.8523 12.806 5.68104 12.6661 5.56442 12.5492L5.38216 12.3741C5.33357 12.3254 5.26673 12.2525 5.18164 12.155C5.09665 12.0577 4.92293 11.8363 4.6605 11.4907C4.39807 11.1452 4.14052 10.7777 3.88784 10.3883C3.63522 9.99918 3.33753 9.48561 2.99496 8.84804C2.65239 8.21047 2.33532 7.54858 2.04376 6.86227C2.01458 6.78446 2 6.71875 2 6.6652C2 6.61163 2.00735 6.57271 2.02193 6.54835L2.05111 6.50459C2.12403 6.41211 2.26251 6.3658 2.4666 6.3658L4.46384 6.35127C4.5222 6.36097 4.57801 6.37672 4.6315 6.39868C4.68491 6.42067 4.72385 6.44131 4.7481 6.46074L4.78458 6.48271C4.86232 6.53625 4.92066 6.61406 4.95949 6.71627C5.05664 6.95962 5.16839 7.21154 5.29481 7.47197C5.42117 7.7323 5.52074 7.93068 5.59363 8.06691L5.71023 8.27869C5.85115 8.5707 5.98723 8.82377 6.11838 9.0379C6.24964 9.25202 6.36749 9.41871 6.47198 9.538C6.57648 9.65726 6.6773 9.7509 6.77445 9.81907C6.87162 9.88724 6.95418 9.92135 7.02227 9.92135C7.09026 9.92135 7.15595 9.909 7.21912 9.88476C7.22877 9.87995 7.24092 9.8677 7.2555 9.84827C7.2701 9.82884 7.29923 9.77529 7.34302 9.68769C7.38672 9.60011 7.41951 9.48573 7.44144 9.34459C7.46337 9.20344 7.48635 9.00637 7.51068 8.75322C7.53493 8.50018 7.53493 8.19599 7.51068 7.84064C7.50103 7.64605 7.47909 7.46842 7.44511 7.30783C7.41108 7.14725 7.37707 7.03525 7.34302 6.97199L7.29923 6.88431C7.17773 6.71885 6.97129 6.61419 6.67968 6.57044C6.61651 6.56082 6.62872 6.50237 6.71621 6.39526C6.79878 6.30285 6.89112 6.22979 6.99317 6.17632C7.25072 6.04978 7.83147 5.99132 8.73528 6.00104C9.13384 6.00595 9.46183 6.03753 9.71941 6.0959C9.81646 6.1203 9.898 6.15313 9.96359 6.1945C10.0291 6.23593 10.0789 6.29428 10.113 6.36971C10.1469 6.44522 10.1726 6.52311 10.1894 6.60335C10.2063 6.68369 10.2149 6.79438 10.2149 6.93553C10.2149 7.07668 10.2126 7.21056 10.2076 7.33711C10.2027 7.46353 10.1967 7.63513 10.1894 7.85171C10.1821 8.0683 10.1785 8.26905 10.1785 8.45402C10.1785 8.50757 10.1763 8.6097 10.1712 8.76064C10.1663 8.9115 10.1652 9.02843 10.1675 9.1111C10.17 9.19387 10.1785 9.29232 10.193 9.40677C10.2076 9.52115 10.2355 9.61609 10.2769 9.69152C10.3181 9.76696 10.3728 9.82656 10.4408 9.87039C10.4798 9.8801 10.5211 9.88982 10.5649 9.89961C10.6085 9.90941 10.6716 9.88264 10.7543 9.81927C10.837 9.75593 10.9292 9.67209 11.0313 9.56743C11.1333 9.46287 11.2597 9.29976 11.4103 9.07837C11.5611 8.85691 11.7262 8.59535 11.906 8.29354C12.1977 7.78741 12.4575 7.23987 12.6861 6.65096C12.7055 6.6023 12.7297 6.5596 12.7588 6.52321C12.788 6.4867 12.8147 6.46115 12.839 6.44663L12.868 6.42466L12.9045 6.40638L12.9993 6.38441C13.0626 6.36979 13.1111 6.36866 13.1452 6.38073L15.2444 6.36621C15.434 6.34189 15.5894 6.34793 15.711 6.38441C15.8324 6.42098 15.9077 6.46107 15.9369 6.5049L15.9803 6.5777C16.0921 6.88922 15.7276 7.60458 14.8869 8.72405C14.7703 8.87982 14.6125 9.08658 14.4131 9.34456C14.0342 9.83134 13.8154 10.1499 13.7571 10.3008C13.6746 10.5005 13.7084 10.6976 13.8593 10.8923C13.9418 10.9945 14.1387 11.1941 14.4497 11.491H14.457L14.4643 11.4983L14.4716 11.5055L14.4861 11.5201C15.1712 12.1577 15.6354 12.6955 15.8783 13.1336Z" fill="#BAC9CF"/>
</svg>
