<svg width="20" height="20" viewBox="0 0 20 20" fill="none" xmlns="http://www.w3.org/2000/svg">
<path d="M0 20L1.72 14.8403C0.847241 13.3724 0.344828 11.6593 0.344828 9.82759C0.344828 4.4 4.74483 0 10.1724 0C15.6 0 20 4.4 20 9.82759C20 15.2552 15.6 19.6552 10.1724 19.6552C8.52103 19.6552 6.96586 19.2459 5.6 18.5266L0 20Z" fill="#2CB742"/>
<path d="M16.1313 12.8522C15.704 12.0447 14.1283 11.1213 14.1283 11.1213C13.7719 10.9181 13.3417 10.8954 13.1384 11.2577C13.1384 11.2577 12.6264 11.8717 12.4962 11.96C11.9014 12.3629 11.3504 12.3473 10.7942 11.7911L9.50171 10.4986L8.20917 9.20611C7.653 8.64995 7.63742 8.09899 8.04034 7.50419C8.12865 7.374 8.74262 6.862 8.74262 6.862C9.10496 6.65843 9.08223 6.22856 8.87898 5.87208C8.87898 5.87208 7.9556 4.29645 7.14813 3.86919C6.80462 3.68737 6.38287 3.75101 6.10819 4.02568L5.53741 4.59645C3.72669 6.40713 4.61825 8.45126 6.42897 10.2619L8.08385 11.9168L9.73872 13.5716C11.5494 15.3823 13.5936 16.2739 15.4043 14.4632L15.9751 13.8924C16.2498 13.6171 16.3131 13.1953 16.1313 12.8522Z" fill="#1E323C"/>
</svg>
