<svg width="24" height="24" viewBox="0 0 24 24" fill="none" xmlns="http://www.w3.org/2000/svg">
<path d="M0 24L2.064 17.8084C1.01669 16.0469 0.413793 13.9912 0.413793 11.7931C0.413793 5.28 5.69379 0 12.2069 0C18.72 0 24 5.28 24 11.7931C24 18.3062 18.72 23.5862 12.2069 23.5862C10.2252 23.5862 8.35903 23.095 6.72 22.2319L0 24Z" fill="#BAC9CF"/>
<path d="M18.7439 15.1372C18.2739 14.249 16.5407 13.2333 16.5407 13.2333C16.1485 13.0097 15.6753 12.9847 15.4518 13.3833C15.4518 13.3833 14.8885 14.0587 14.7453 14.1558C14.091 14.599 13.485 14.5819 12.8732 13.9701L11.4514 12.5483L10.0296 11.1266C9.41781 10.5148 9.40067 9.90872 9.84389 9.25444C9.94103 9.11123 10.6164 8.54802 10.6164 8.54802C11.015 8.3241 10.99 7.85125 10.7664 7.45911C10.7664 7.45911 9.75067 5.72593 8.86246 5.25593C8.4846 5.05594 8.02067 5.12594 7.71852 5.42807L7.09066 6.05592C5.09887 8.04768 6.07959 10.2962 8.07138 12.288L9.89174 14.1083L11.7121 15.9286C13.7039 17.9204 15.9525 18.9011 17.9443 16.9093L18.5721 16.2815C18.8743 15.9786 18.9439 15.5147 18.7439 15.1372Z" fill="white"/>
</svg>
