<svg width="23" height="16" viewBox="0 0 23 16" fill="none" xmlns="http://www.w3.org/2000/svg">
<path fill-rule="evenodd" clip-rule="evenodd" d="M19.0092 0.130349C20.3637 0.206939 21.0294 0.407863 21.6424 1.50148C22.2808 2.59373 22.6031 4.47489 22.603 7.78795V7.79927C22.603 11.097 22.2807 12.9922 21.6437 14.0731C21.0304 15.1665 20.3653 15.3651 19.0105 15.457C17.6557 15.5349 14.2525 15.5817 11.3045 15.5817C8.35042 15.5817 4.9458 15.5349 3.59257 15.4554C2.24043 15.3635 1.57504 15.1652 0.956496 14.0715C0.324832 12.9907 0 11.0954 0 7.79809V7.78667C0 4.47489 0.324832 2.59373 0.956496 1.50148C1.57504 0.406537 2.24199 0.206939 3.5937 0.128786C4.94579 0.0382239 8.35042 0 11.3045 0C14.2525 0 17.6557 0.0382238 19.0092 0.130349ZM8.47632 3.5415V12.0406L15.5396 7.79103L8.47632 3.5415Z" fill="#BAC9CF"/>
</svg>
