<svg width="108" height="43" viewBox="0 0 108 43" fill="none" xmlns="http://www.w3.org/2000/svg">
<path fill-rule="evenodd" clip-rule="evenodd" d="M34.3063 28.8344C31.7072 33.5317 26.7152 36.7175 20.9878 36.7175C12.5937 36.7175 5.76571 29.8681 5.76571 21.448C5.76571 13.0281 12.5977 6.1785 20.9878 6.1785C26.7049 6.1785 31.6958 9.35673 34.2969 14.0445H34.2886C35.5128 16.2412 36.2102 18.7713 36.2102 21.4641C36.2102 22.8534 36.0246 24.1993 35.6767 25.4784C35.3527 26.6606 34.8895 27.7855 34.3063 28.8344ZM35.4712 14.0445H35.479C32.7842 8.76101 27.3007 5.13525 20.9878 5.13525C12.0188 5.13525 4.72455 12.4532 4.72455 21.448C4.72455 30.4318 12.0038 37.7426 20.9576 37.7606L20.9104 37.7609C11.9416 37.7609 4.64451 30.4427 4.64451 21.4479C4.64451 16.1991 7.12828 11.5213 10.9794 8.53545C7.10704 11.5181 4.6123 16.2 4.6123 21.4642C4.6123 30.4735 11.9194 37.777 20.9332 37.777C29.9469 37.777 37.2541 30.4735 37.2541 21.4642C37.2541 18.7921 36.6107 16.2705 35.4712 14.0445Z" fill="white"/>
<path fill-rule="evenodd" clip-rule="evenodd" d="M21.0492 36.2787C21.0045 36.279 20.9598 36.2793 20.9152 36.2793C20.9126 36.2793 20.91 36.2793 20.9075 36.2792C20.8542 36.2792 20.801 36.279 20.7478 36.2786C12.6261 36.1929 6.06877 29.5859 6.06877 21.448C6.06877 13.2569 12.7123 6.61667 20.9075 6.61667C20.91 6.61667 20.9126 6.61667 20.9152 6.61667C20.9159 6.61667 20.9167 6.61667 20.9173 6.61667C29.1081 6.62202 35.7462 13.2601 35.7462 21.448C35.7462 29.5919 29.1791 36.2027 21.0492 36.2787ZM30.8177 14.0445C32.3636 16.1085 33.2792 18.6713 33.2792 21.448C33.2792 22.8591 33.0427 24.2151 32.6072 25.4784C30.9498 30.2856 26.4103 33.7511 21.0524 33.8125C21.0042 33.8131 20.956 33.8135 20.9077 33.8135C20.7633 33.8135 20.6195 33.8108 20.4762 33.806C13.8434 33.5788 8.53619 28.1329 8.53619 21.448C8.53619 14.6188 14.0751 9.08263 20.9077 9.08263C24.9623 9.08263 28.5613 11.0322 30.8177 14.0445Z" fill="white"/>
<path d="M19.1593 2.27206C19.1593 1.3304 18.3516 0.584612 17.423 0.741379C7.53311 2.41116 0 11.0167 0 21.3817C0 24.095 0.516219 26.6877 1.4558 29.067C1.7968 29.9305 2.83154 30.241 3.63556 29.7768C4.36241 29.3571 4.63596 28.4511 4.33858 27.6662C3.59838 25.7128 3.19321 23.5945 3.19321 21.3817C3.19321 12.6826 9.45444 5.44603 17.7161 3.93255C18.5296 3.78353 19.1593 3.09909 19.1593 2.27206Z" fill="white"/>
<path d="M24.1505 3.93256C23.337 3.78353 22.7073 3.09909 22.7073 2.27206C22.7073 1.3304 23.515 0.584613 24.4436 0.741381C34.3335 2.41116 41.8666 11.0167 41.8666 21.3817C41.8666 24.073 41.3587 26.6457 40.4335 29.0092C40.0944 29.8755 39.0575 30.1882 38.2517 29.723C37.5264 29.3043 37.2522 28.4011 37.5466 27.617C38.275 25.6772 38.6734 23.576 38.6734 21.3817C38.6734 12.6826 32.4122 5.44603 24.1505 3.93256Z" fill="white"/>
<path d="M36.3691 32.733C35.663 32.3254 34.7696 32.515 34.2296 33.1258C30.9792 36.803 26.227 39.1217 20.9333 39.1217C15.6586 39.1217 10.9216 36.8197 7.67213 33.1655C7.13158 32.5576 6.24017 32.3699 5.5357 32.7766C4.70713 33.255 4.47189 34.3498 5.09795 35.0732C8.93638 39.5087 14.6071 42.3149 20.9333 42.3149C27.2819 42.3149 32.9705 39.4888 36.8095 35.0259C37.4321 34.3021 37.1959 33.2104 36.3691 32.733Z" fill="white"/>
<rect x="29.8032" y="14.0049" width="13.1277" height="10.9989" fill="#2252BF"/>
<path fill-rule="evenodd" clip-rule="evenodd" d="M90.9966 22.4843C89.9265 22.4843 89.3915 22.0386 89.3915 21.1469V15.5987C90.4615 15.5987 90.9966 16.0399 90.9966 16.9224V22.4843ZM88.6737 22.486C87.5953 22.486 87.0559 22.0448 87.0559 21.1623V19.8385H82.9371V22.486C81.8671 22.486 81.3322 22.0403 81.3322 21.1486V15.5995C82.4022 15.5995 82.9371 16.0361 82.9371 16.9097V18.2334H87.0559V15.5995C88.1344 15.5995 88.6737 16.0361 88.6737 16.9097V22.486ZM78.0435 20.8855V20.872L80.691 20.8584C80.6205 21.2315 80.4494 21.5782 80.1965 21.8612C79.8552 22.2752 79.3422 22.5088 78.8058 22.4942H78.0435V22.4805L75.3563 22.4942C74.7634 22.5051 74.1905 22.2794 73.7647 21.8666C73.3335 21.465 73.0952 20.8978 73.1101 20.3086V17.7831C73.0953 17.1941 73.3336 16.6269 73.7647 16.2252C74.1914 15.8145 74.7642 15.5906 75.3561 15.6031H80.6784L80.6649 15.6166C80.592 15.9848 80.4213 16.3266 80.1702 16.6058C79.829 17.0199 79.3159 17.2535 78.7795 17.2388H78.0173V17.2118H75.3553C74.9273 17.2118 74.7132 17.4034 74.7132 17.7867V20.3141C74.7132 20.6974 74.9273 20.8892 75.3553 20.8892L78.0435 20.8855ZM65.5816 22.4995C64.5115 22.4906 63.9765 21.9956 63.9765 21.0149V20.0509C63.9676 19.0436 64.489 18.5267 65.5408 18.5001H70.8088V17.7243C70.8089 17.3765 70.6931 17.2026 70.4616 17.2026L65.0994 17.2298C65.1717 16.8562 65.3446 16.5094 65.5996 16.227C65.9407 15.8127 66.4539 15.5792 66.9903 15.594H70.4671C71.0094 15.5782 71.5289 15.8113 71.8776 16.227C72.2375 16.6418 72.4308 17.1753 72.4201 17.7243V21.0528C72.4201 22.0066 71.9078 22.4834 70.8829 22.4834L65.5816 22.4995ZM70.8097 20.9624V20.1071H65.5825V20.9624H70.8097ZM63.1745 20.6911C63.1745 21.8811 62.4605 22.476 61.0324 22.476V16.8699L57.213 20.8485L53.3935 16.8699V20.6368C53.3935 21.8625 52.6794 22.4751 51.2514 22.4751V15.0506C51.2514 13.8727 52.001 13.2837 53.5002 13.2837L57.213 17.4785L60.9428 13.2837C62.4299 13.2837 63.1736 13.8548 63.1736 14.9972L63.1746 20.6911H63.1745ZM105.702 17.1891L105.688 17.2026H105.598C105.491 17.2207 105.125 17.2207 104.501 17.2026H101.427V18.2317H106.602C106.531 18.6047 106.36 18.9515 106.107 19.2344C105.768 19.6469 105.248 19.8667 104.716 19.823L101.828 19.8366H101.427V20.8792L104.476 20.8656L107.123 20.8521C107.053 21.2252 106.882 21.5719 106.629 21.8549C106.288 22.269 105.775 22.5025 105.238 22.4878H101.428C100.358 22.4878 99.8226 21.9528 99.8226 20.8829V17.2161C99.8226 16.1378 100.344 15.5986 101.387 15.5986H107.15C107.079 15.9716 106.908 16.3183 106.655 16.6013C106.41 16.896 106.075 17.1024 105.702 17.1891ZM44.542 15.5986C45.6205 15.5986 46.1597 16.0443 46.1597 16.9358V20.3051C46.1597 20.6884 46.3707 20.8801 46.7927 20.8801H48.5043C49.6364 20.8801 50.2024 21.415 50.2024 22.4852H46.7917C46.1996 22.4976 45.627 22.2738 45.2003 21.8631C44.7688 21.4615 44.53 20.8944 44.5447 20.3051L44.542 15.5986H44.542ZM42.4162 17.1891L42.4027 17.2026H42.3121C42.2049 17.2207 41.8394 17.2207 41.2154 17.2026H38.141V18.2325H43.3158C43.2429 18.6064 43.0692 18.9532 42.8131 19.2353C42.4742 19.6477 41.9544 19.8676 41.4225 19.824L38.5344 19.8376H38.1328V20.8801L41.1819 20.8666L43.8295 20.853C43.7588 21.2259 43.5879 21.5727 43.3349 21.8559C42.9938 22.2699 42.4805 22.5035 41.9442 22.4887H38.1375C37.0674 22.4887 36.5324 21.9537 36.5324 20.8837V17.2161C36.5324 16.1378 37.0538 15.5986 38.0967 15.5986H43.8593C43.7887 15.9716 43.6178 16.3183 43.3648 16.6013C43.1208 16.8952 42.7879 17.1015 42.4162 17.1891ZM36.0514 15.5986C36.0514 16.6685 35.5344 17.2035 34.5005 17.2035H32.9489V21.1071C32.9489 22.0252 32.414 22.4842 31.344 22.4842V17.2026H28.2424C28.2424 16.1333 28.7061 15.5983 29.6331 15.5976L36.0514 15.5986ZM27.5743 21.1604C27.5743 22.043 27.0392 22.4842 25.9692 22.4842L21.8352 17.8447V21.1342C21.8352 22.0347 21.3001 22.4852 20.2301 22.4852V16.9223C20.2301 16.0398 20.7651 15.5986 21.8352 15.5986L25.9665 20.1983V16.9088C25.9665 16.0352 26.5016 15.5986 27.5716 15.5986L27.5742 21.1604H27.5743ZM17.937 22.5204C19.0137 22.5204 19.5516 22.0718 19.5511 21.175V15.5923C18.4745 15.5923 17.9364 16.0361 17.937 16.9242V22.5204ZM17.937 23.6286H107.12V24.0644H17.937V23.6286ZM99.0061 21.1615C99.0061 22.044 98.4711 22.4853 97.4012 22.4853L93.2688 17.8457V21.1343C93.2688 22.0349 92.7339 22.4853 91.6639 22.4853V16.9224C91.6639 16.0399 92.1988 15.5987 93.2688 15.5987L97.4003 20.1985V16.909C97.4003 16.0354 97.9353 15.5987 99.0053 15.5987L99.006 21.1615H99.0061ZM107.12 23.2276V23.6635V23.2276Z" fill="white"/>
<path fill-rule="evenodd" clip-rule="evenodd" d="M47.5667 28.1157H47.049V27.3812C47.049 27.2715 46.9864 27.1837 46.8603 27.1173C46.7512 27.0613 46.6299 27.033 46.4948 27.033H44.0752V28.1157H43.5576V25.1222H46.6503C46.9587 25.1222 47.1923 25.2178 47.351 25.4095C47.4951 25.578 47.5667 25.8009 47.5667 26.079C47.5667 26.3267 47.5211 26.5121 47.4291 26.6346C47.3647 26.7188 47.2615 26.7875 47.1198 26.8412C47.4177 26.9509 47.5667 27.1307 47.5667 27.3805V28.1157ZM47.049 26.0797C47.049 25.8837 47.0027 25.7429 46.9106 25.658C46.818 25.5724 46.6633 25.5298 46.446 25.5298H44.0752V26.6296H46.446C46.6633 26.6296 46.8204 26.5836 46.9172 26.4924C47.0051 26.4081 47.049 26.2708 47.049 26.0797ZM52.5442 26.6225C52.5442 27.108 52.5181 27.4258 52.4652 27.5765C52.3683 27.8568 52.0745 28.0357 51.5847 28.1122C51.391 28.1426 51.0035 28.1582 50.4224 28.1582C49.8496 28.1582 49.4621 28.1426 49.2603 28.1122C48.7671 28.0329 48.4717 27.8561 48.3748 27.58C48.3218 27.4321 48.2959 27.113 48.2959 26.6225C48.2959 26.1378 48.3218 25.8186 48.3748 25.6657C48.4717 25.3847 48.7654 25.2065 49.2555 25.1294C49.458 25.0961 49.8471 25.0798 50.4224 25.0798C50.9979 25.0798 51.3854 25.0954 51.5847 25.1257C52.0745 25.2051 52.3683 25.3833 52.4652 25.6615C52.5181 25.8122 52.5442 26.1328 52.5442 26.6225ZM52.0314 26.6225C52.0314 26.0698 51.9639 25.7443 51.8297 25.6474C51.6832 25.5377 51.2135 25.4831 50.4224 25.4831C49.8568 25.4831 49.5167 25.4923 49.4027 25.5101C49.165 25.5405 49.008 25.6311 48.9299 25.7811C48.8526 25.9318 48.8135 26.2121 48.8135 26.6225C48.8135 27.0259 48.8542 27.3019 48.9348 27.4527C49.0153 27.6034 49.1741 27.6947 49.4117 27.7279C49.5288 27.7457 49.8658 27.7549 50.4224 27.7549C50.9849 27.7549 51.3226 27.7471 51.4333 27.7322C51.6709 27.6989 51.8297 27.6077 51.9102 27.4583C51.9907 27.309 52.0314 27.0309 52.0314 26.6225ZM56.8054 27.2432C56.8054 27.8249 56.44 28.1157 55.7092 28.1157H52.9478V25.1222H55.5911C55.9257 25.1222 56.1869 25.1902 56.375 25.3254C56.5808 25.4704 56.6833 25.6863 56.6833 25.9721C56.6833 26.2729 56.5516 26.4662 56.2878 26.5503C56.4588 26.5963 56.589 26.6855 56.6769 26.8178C56.7623 26.9382 56.8054 27.0797 56.8054 27.2432ZM56.1706 25.9721C56.1706 25.6771 55.9769 25.5298 55.5895 25.5298H53.4605V26.3834H55.5895C55.7809 26.3834 55.9199 26.3558 56.0079 26.2998C56.1161 26.2362 56.1706 26.1265 56.1706 25.9721ZM56.2896 27.2446C56.2896 27.0939 56.2366 26.9757 56.1291 26.8901C56.0225 26.8044 55.8809 26.7613 55.7043 26.7613H53.4605V27.7124H55.7043C56.095 27.7124 56.2896 27.5566 56.2896 27.2446ZM61.7912 26.6225C61.7912 27.108 61.7651 27.4258 61.7122 27.5765C61.6153 27.8568 61.3215 28.0357 60.8317 28.1122C60.6379 28.1426 60.2505 28.1582 59.6694 28.1582C59.0965 28.1582 58.709 28.1426 58.5073 28.1122C58.014 28.0329 57.7186 27.8561 57.6218 27.58C57.5688 27.4321 57.5429 27.113 57.5429 26.6225C57.5429 26.1378 57.5688 25.8186 57.6218 25.6657C57.7186 25.3847 58.0124 25.2065 58.5025 25.1294C58.705 25.0961 59.0941 25.0798 59.6694 25.0798C60.2448 25.0798 60.6322 25.0954 60.8317 25.1257C61.3215 25.2051 61.6153 25.3833 61.7122 25.6615C61.7651 25.8122 61.7912 26.1328 61.7912 26.6225ZM61.2784 26.6225C61.2784 26.0698 61.2109 25.7443 61.0765 25.6474C60.9301 25.5377 60.4605 25.4831 59.6694 25.4831C59.1038 25.4831 58.7636 25.4923 58.6496 25.5101C58.412 25.5405 58.255 25.6311 58.1769 25.7811C58.0995 25.9318 58.0605 26.2121 58.0605 26.6225C58.0605 27.0259 58.1011 27.3019 58.1817 27.4527C58.2623 27.6034 58.421 27.6947 58.6587 27.7279C58.7758 27.7457 59.1128 27.7549 59.6694 27.7549C60.2317 27.7549 60.5695 27.7471 60.6803 27.7322C60.9179 27.6989 61.0765 27.6077 61.1572 27.4583C61.2377 27.309 61.2784 27.0309 61.2784 26.6225ZM65.8408 25.5298H64.3042V28.1157H63.7867V25.5298H62.2436V25.1222H65.8408V25.5298ZM66.933 28.1157H66.4154V25.1222H66.933V28.1157ZM71.6063 27.074C71.6063 27.4449 71.5241 27.7124 71.3596 27.8787C71.2188 28.0216 70.9926 28.1086 70.6817 28.1391C70.5579 28.1519 70.2218 28.1582 69.6733 28.1582C69.098 28.1582 68.6959 28.1299 68.4664 28.0741C68.1816 28.0054 67.9854 27.8631 67.8763 27.6487C67.7738 27.442 67.7225 27.1002 67.7225 26.6225C67.7225 26.1455 67.7754 25.8009 67.8813 25.5893C67.987 25.377 68.1816 25.2354 68.4664 25.1639C68.6984 25.1081 69.1004 25.0798 69.6733 25.0798C70.2251 25.0798 70.5612 25.0861 70.6817 25.0989C70.9926 25.1294 71.2188 25.215 71.3596 25.3551C71.5241 25.5214 71.6063 25.7903 71.6063 26.1633H71.0911C71.0911 25.8349 71.0121 25.6374 70.8534 25.571C70.7216 25.5122 70.3285 25.4831 69.6749 25.4831C69.185 25.4831 68.8693 25.4974 68.7285 25.5249C68.5233 25.5659 68.3884 25.6643 68.324 25.82C68.2679 25.9601 68.2402 26.2276 68.2402 26.6225C68.2402 27.0132 68.2695 27.2779 68.328 27.418C68.3924 27.5737 68.5273 27.6721 68.7333 27.7131C68.8766 27.7406 69.1906 27.7549 69.6749 27.7549C70.3228 27.7549 70.7142 27.7265 70.8494 27.6707C71.0105 27.602 71.0911 27.4031 71.0911 27.074H71.6063ZM78.9512 27.2927C78.9512 27.655 78.7958 27.895 78.485 28.0125C78.2383 28.1065 77.7224 28.154 76.9353 28.154C76.0938 28.154 75.5534 28.0734 75.3157 27.9126C75.1253 27.7853 75.0301 27.5185 75.0301 27.1122H75.5444C75.5444 27.3904 75.6178 27.5673 75.7642 27.6438C75.9026 27.7152 76.294 27.7506 76.9386 27.7506C77.5896 27.7506 77.9901 27.7265 78.1398 27.6777C78.3391 27.614 78.4385 27.4852 78.4385 27.2913C78.4385 27.0925 78.3693 26.9644 78.2318 26.9085C78.117 26.8604 77.724 26.8356 77.0525 26.8356C76.2517 26.8356 75.7186 26.7527 75.4549 26.5871C75.2466 26.4542 75.1424 26.2269 75.1424 25.9057C75.1424 25.556 75.2661 25.3275 75.5127 25.2206C75.7471 25.1208 76.2614 25.0713 77.0541 25.0713C77.8355 25.0713 78.3425 25.1505 78.5744 25.309C78.7624 25.4393 78.8568 25.6905 78.8568 26.0635H78.3547C78.3547 25.8136 78.2798 25.6516 78.1301 25.578C77.9917 25.5094 77.6335 25.4747 77.0558 25.4747C76.574 25.4747 76.276 25.4824 76.1614 25.4974C75.8235 25.5383 75.6551 25.675 75.6551 25.9071C75.6551 26.1059 75.7479 26.2454 75.9326 26.3246C76.1028 26.3982 76.5374 26.4364 77.2372 26.4392C77.9372 26.4422 78.3791 26.481 78.5638 26.5581C78.8219 26.665 78.9512 26.9099 78.9512 27.2927ZM83.7732 25.1222L81.7395 26.9169V28.1157H81.2219V26.9176L79.1791 25.1222H79.8717L81.4807 26.5468L83.088 25.1222H83.7732ZM88.0485 27.2927C88.0485 27.655 87.8931 27.895 87.5822 28.0125C87.3356 28.1065 86.8196 28.154 86.0326 28.154C85.191 28.154 84.6507 28.0734 84.413 27.9126C84.2226 27.7853 84.1273 27.5185 84.1273 27.1122H84.6416C84.6416 27.3904 84.715 27.5673 84.8614 27.6438C84.9998 27.7152 85.3914 27.7506 86.0358 27.7506C86.6869 27.7506 87.0874 27.7265 87.2371 27.6777C87.4364 27.614 87.5358 27.4852 87.5358 27.2913C87.5358 27.0925 87.4666 26.9644 87.329 26.9085C87.2143 26.8604 86.8212 26.8356 86.1497 26.8356C85.349 26.8356 84.8159 26.7527 84.5522 26.5871C84.3438 26.4542 84.2396 26.2269 84.2396 25.9057C84.2396 25.556 84.3634 25.3275 84.61 25.2206C84.8444 25.1208 85.3587 25.0713 86.1513 25.0713C86.9328 25.0713 87.4397 25.1505 87.6717 25.309C87.8597 25.4393 87.954 25.6905 87.954 26.0635H87.452C87.452 25.8136 87.3771 25.6516 87.2274 25.578C87.089 25.5094 86.7308 25.4747 86.1531 25.4747C85.6712 25.4747 85.3733 25.4824 85.2586 25.4974C84.9208 25.5383 84.7524 25.675 84.7524 25.9071C84.7524 26.1059 84.8452 26.2454 85.0299 26.3246C85.2 26.3982 85.6346 26.4364 86.3344 26.4392C87.0344 26.4422 87.4763 26.481 87.661 26.5581C87.9191 26.665 88.0485 26.9099 88.0485 27.2927ZM92.0754 25.5298H90.5388V28.1157H90.0213V25.5298H88.4782V25.1222H92.0754V25.5298ZM95.8062 28.1157H92.5084V25.1222H95.8062V25.5298H93.0261V26.3961H95.7053V26.7995H93.0261V27.7124H95.8062V28.1157ZM102.072 28.1157H101.559V25.5298H101.458L99.5286 28.1157H99.2072L97.2792 25.5298H97.1839V28.1157H96.6713V25.1222H97.5861L99.3708 27.5779L101.156 25.1222H102.072V28.1157ZM106.748 27.2927C106.748 27.655 106.593 27.895 106.282 28.0125C106.035 28.1065 105.519 28.154 104.732 28.154C103.891 28.154 103.35 28.0734 103.113 27.9126C102.923 27.7853 102.827 27.5185 102.827 27.1122H103.342C103.342 27.3904 103.415 27.5673 103.561 27.6438C103.7 27.7152 104.091 27.7506 104.736 27.7506C105.387 27.7506 105.787 27.7265 105.937 27.6777C106.136 27.614 106.236 27.4852 106.236 27.2913C106.236 27.0925 106.167 26.9644 106.029 26.9085C105.914 26.8604 105.521 26.8356 104.85 26.8356C104.049 26.8356 103.516 26.7527 103.252 26.5871C103.044 26.4542 102.94 26.2269 102.94 25.9057C102.94 25.556 103.063 25.3275 103.31 25.2206C103.544 25.1208 104.059 25.0713 104.851 25.0713C105.633 25.0713 106.14 25.1505 106.372 25.309C106.559 25.4393 106.654 25.6905 106.654 26.0635H106.152C106.152 25.8136 106.077 25.6516 105.927 25.578C105.789 25.5094 105.431 25.4747 104.853 25.4747C104.371 25.4747 104.073 25.4824 103.958 25.4974C103.621 25.5383 103.452 25.675 103.452 25.9071C103.452 26.1059 103.545 26.2454 103.73 26.3246C103.9 26.3982 104.335 26.4364 105.034 26.4392C105.734 26.4422 106.176 26.481 106.361 26.5581C106.619 26.665 106.748 26.9099 106.748 27.2927Z" fill="white"/>
</svg>
